<?xml version="1.0" standalone="no"?>
<!DOCTYPE svg PUBLIC "-//W3C//DTD SVG 1.1//EN" "http://www.w3.org/Graphics/SVG/1.1/DTD/svg11.dtd" >
<svg xmlns="http://www.w3.org/2000/svg">
<metadata>Generated by IcoMoon</metadata>
<defs>
<font id="icomoon" horiz-adv-x="1024">
<font-face units-per-em="1024" ascent="960" descent="-64" />
<missing-glyph horiz-adv-x="1024" />
<glyph unicode="&#x20;" horiz-adv-x="512" d="" />
<glyph unicode="&#xe900;" horiz-adv-x="3903" d="M339.675 501.652c-8.527 0-17.765 0.711-26.293 2.842-33.399 7.817-61.113 30.557-76.036 61.824-0.711 1.421-1.421 3.553-2.132 4.974l39.084 16.344c0.711-0.711 0.711-2.132 1.421-2.842 9.238-19.187 26.293-33.399 47.611-38.373 18.476-4.264 36.952-1.421 53.296 8.527s27.003 25.582 31.978 43.348c6.396 26.293-3.553 54.718-24.872 71.772l-0.711 0.711 26.293 33.399 0.711-0.711c34.11-27.003 49.743-72.483 39.795-115.12-7.106-29.135-24.872-54.007-51.164-70.351-18.476-10.659-38.373-16.344-58.981-16.344z" />
<glyph unicode="&#xe901;" horiz-adv-x="3903" d="M518.751 198.929c0 0 0 0 0 0-174.101 2.842-326.884 101.618-429.924 277.141-5.685 9.238-2.842 21.319 5.685 27.714l593.366 451.953c7.106 5.685 17.055 5.685 24.872 0.711s11.37-14.212 9.238-22.74l-182.629-718.434c-2.132-9.238-10.659-16.344-20.608-16.344zM135.728 481.754c90.959-146.387 220.291-230.951 366.679-239.478l162.731 642.398-529.41-402.92z" />
<glyph unicode="&#xe902;" horiz-adv-x="3903" d="M534.384 284.203c-0.711 0-1.421 0-2.132 0-142.124 12.080-250.848 68.93-323.331 169.127-7.106 9.238-4.974 22.74 4.974 29.846 9.238 7.106 22.74 4.974 29.846-4.974 65.377-90.959 161.31-140.702 292.064-151.362 12.080-0.711 20.608-11.37 19.187-22.74-0.711-11.37-9.949-19.897-20.608-19.897z" />
<glyph unicode="&#xe903;" horiz-adv-x="3903" d="M637.424 742.551c-38.373 8.527-73.904 27.003-93.091 56.139l35.531 23.45c12.791-19.187 39.084-31.978 66.087-37.663l-8.527-41.926z" />
<glyph unicode="&#xe904;" horiz-adv-x="3903" d="M21.319 9.904c-4.264 0-7.817 1.421-11.37 3.553-9.949 6.396-12.791 19.897-6.396 29.846l159.178 244.452c6.396 9.949 19.897 12.791 29.846 6.396s12.791-19.897 6.396-29.846l-159.889-244.452c-4.264-6.396-10.659-9.949-17.765-9.949z" />
<glyph unicode="&#xe905;" horiz-adv-x="3903" d="M134.307-64c-4.264 0-7.817 1.421-11.37 3.553-9.949 6.396-12.791 19.897-6.396 29.846l159.178 244.452c6.396 9.949 19.897 12.791 29.846 6.396s12.791-19.897 6.396-29.846l-159.178-244.452c-4.974-6.396-11.37-9.949-18.476-9.949z" />
<glyph unicode="&#xe906;" horiz-adv-x="3903" d="M174.101 116.497c-4.264 0-7.817 1.421-11.37 3.553-9.949 6.396-12.791 19.897-6.396 29.846l58.271 89.538c6.396 9.949 19.897 12.791 29.846 6.396s12.791-19.897 6.396-29.846l-58.981-89.538c-4.264-6.396-11.37-9.949-17.765-9.949z" />
<glyph unicode="&#xe907;" horiz-adv-x="3903" d="M79.589-19.231c-4.264 0-7.817 1.421-11.37 3.553-9.949 6.396-12.791 19.897-6.396 29.846l58.271 89.538c6.396 9.949 19.897 12.791 29.846 6.396s12.791-19.897 6.396-29.846l-58.271-89.538c-4.264-7.106-11.37-9.949-18.476-9.949z" />
<glyph unicode="&#xe908;" horiz-adv-x="3903" d="M539.359 622.457c-4.264 0-8.527 0.711-12.791 1.421-29.846 7.106-47.611 36.952-40.505 66.087 7.106 29.846 36.952 47.611 66.087 40.505v0c14.212-3.553 26.293-12.080 34.11-24.872s9.949-27.003 6.396-41.926c-3.553-14.212-12.080-26.293-24.872-34.11-8.527-4.264-18.476-7.106-28.425-7.106zM539.359 689.965c-2.132 0-4.264-0.711-6.396-2.132-2.842-1.421-4.974-4.264-5.685-7.817-1.421-6.396 2.842-13.502 9.238-14.923 3.553-0.711 6.396 0 9.238 1.421s4.974 4.264 5.685 7.817c0.711 3.553 0 6.396-1.421 9.238s-4.264 4.974-7.817 5.685v0c-0.711 0.711-2.132 0.711-2.842 0.711z" />
<glyph unicode="&#xe909;" horiz-adv-x="3903" d="M474.019 472.906c20.608-4.944 33.306-25.659 28.362-46.267s-25.659-33.306-46.267-28.362c-20.608 4.944-33.306 25.659-28.362 46.267s25.659 33.306 46.267 28.362z" />
<glyph unicode="&#xe90a;" horiz-adv-x="3903" d="M1091.509 137.815c-45.48-14.923-95.223-25.582-148.519-22.029-205.368 12.791-245.163 228.819-114.409 385.865 34.11 41.216 74.615 72.483 122.226 94.512s98.065 33.399 152.072 33.399c43.348 0 83.142-4.974 120.805-15.634l-38.373-138.57c-11.37 8.527-26.293 14.923-44.058 19.187s-36.952 7.106-56.139 7.106c-40.505 0-76.036-11.37-105.882-34.82s-50.454-54.718-61.824-95.223c-11.37-39.795-7.817-71.062 9.238-94.512 17.055-22.74 45.48-34.11 84.563-34.11 36.241 0 75.325 9.238 117.963 27.714l-37.663-132.885zM1380.019 124.314h142.834l60.402 218.16c13.502 47.611 13.502 83.853 0 108.724s-39.084 36.952-77.457 36.952c-20.608 0-41.926-4.974-62.534-14.923s-39.795-24.161-57.56-41.926h-1.421l60.402 218.87h-147.808l-145.677-525.857h147.808l56.139 201.815c4.264 15.634 11.37 28.425 21.319 39.084 9.949 9.949 21.319 14.923 34.11 14.923 27.003 0 35.531-17.765 25.582-53.296l-56.139-202.526zM1871.056 575.556c-5.685-20.608-17.765-37.663-36.952-50.454-18.476-12.791-40.505-19.187-65.377-19.187-24.161 0-41.926 7.106-53.296 19.897-11.37 13.502-14.923 29.846-9.238 49.743 5.685 20.608 17.765 36.952 36.241 49.743s39.795 19.187 65.377 19.187c24.872 0 42.637-6.396 54.718-19.187 11.37-12.791 14.212-29.846 8.527-49.743v0zM1589.652 124.314l98.065 355.309h147.808l-98.065-355.309h-147.808zM1808.522 124.314h147.808l145.677 525.857h-147.808l-145.677-525.857zM2309.507 575.556c-5.685-20.608-17.765-37.663-36.952-50.454-18.476-12.791-40.505-19.187-65.377-19.187-24.161 0-41.926 7.106-53.296 19.897-11.37 13.502-14.923 29.846-9.238 49.743 5.685 20.608 17.765 36.952 36.241 49.743s39.795 19.187 65.377 19.187c24.872 0 42.637-6.396 54.718-19.187 10.659-12.791 13.502-29.846 8.527-49.743v0zM2028.103 124.314l98.065 355.309h147.808l-98.065-355.309h-147.808zM2505.638 124.314h-175.523l-20.608 355.309h154.204l-10.659-193.999c-1.421-31.267-4.264-54.718-7.817-70.351h2.132c1.421 4.974 3.553 9.238 5.685 14.212s42.637 88.117 120.805 250.137h153.493l-221.713-355.309zM2829.679 260.042h219.581l15.634 55.428c9.949 34.82 11.37 64.666 4.974 90.959-6.396 25.582-20.608 46.19-42.637 60.402s-51.875 21.319-88.117 21.319c-36.241 0-71.062-8.527-105.171-24.872s-63.245-39.084-85.985-68.219c-23.45-29.135-39.795-62.534-50.454-100.908-15.634-55.428-9.949-98.776 15.634-130.754s69.641-47.611 131.464-47.611c51.164 0 96.644 7.106 136.439 21.319l25.582 93.802c-34.82-13.502-68.93-19.897-103.75-19.897-24.872 0-43.348 4.264-56.139 12.791-13.502 9.238-19.187 20.608-17.055 36.241v0zM2939.825 337.499h-89.538c6.396 18.476 15.634 33.399 27.003 44.769s23.45 16.344 35.531 16.344c29.135 0 38.373-20.608 27.003-61.113v0zM3393.199 353.133c-4.974 2.842-11.37 4.974-20.608 7.106s-16.344 2.842-22.74 2.842c-49.033 0-81.010-28.425-96.644-84.563l-42.637-154.204h-147.808l98.065 355.309h147.808l-17.055-62.534h1.421c14.923 22.74 32.688 39.795 52.586 51.164s41.216 17.765 63.245 17.765c7.817 0 14.923-1.421 19.897-4.264l-35.531-128.622zM3395.331-42.681c41.926 0 81.010 12.080 116.541 36.241s71.062 64.666 106.593 120.094l231.661 365.257h-143.545c-73.194-139.992-111.567-212.475-114.409-218.87s-5.685-12.080-7.817-17.055h-1.421c2.132 11.37 3.553 32.688 4.264 64.666l4.264 171.259h-137.149l24.161-353.888-19.187-27.714c-14.923-21.319-36.241-32.688-63.956-32.688-9.949 0-20.608 2.132-30.557 5.685-10.659 3.553-17.765 7.817-22.74 12.080l-30.557-111.567c11.37-4.974 24.161-8.527 39.795-10.659 15.634-1.421 29.846-2.842 44.058-2.842z" />
<glyph unicode="&#xe90b;" horiz-adv-x="3903" d="M3184.988 550.684c-3.553-9.949-9.949-17.765-19.187-23.45s-19.897-9.238-31.978-9.238c-10.659 0-19.187 2.842-23.45 9.238-4.974 6.396-4.974 14.212-2.132 23.45 3.553 9.238 9.949 17.055 19.187 22.74s19.187 8.527 31.267 8.527c11.37 0 19.187-2.842 24.161-8.527s5.685-12.791 2.132-22.74v0zM3342.035 527.234c-14.212-6.396-41.216-9.238-56.849-8.527-34.82 1.421-72.483 31.978-58.271 82.432 4.974 19.187 17.055 34.82 29.846 48.322s28.425 23.45 45.48 30.557c17.765 7.106 36.241 10.659 55.428 10.659 10.659 0 19.897-0.711 27.714-2.132s12.791-2.842 14.923-4.974l-19.897-53.296c-2.132 2.842-6.396 4.974-12.080 7.106s-11.37 2.842-16.344 2.842c-13.502 0-24.872-2.842-34.11-9.238s-16.344-15.634-20.608-27.003c-4.264-11.37-4.264-19.897 0-26.293s12.791-9.238 24.161-9.238c12.791 0 25.582 2.842 38.373 9.238l-17.765-50.454zM3582.223 607.534c5.685 15.634 7.106 29.846 4.264 42.637s-9.949 22.74-22.029 29.846c-11.37 7.106-27.003 10.659-46.901 10.659-19.187 0-36.952-3.553-54.007-9.949-17.055-7.106-31.978-17.055-44.769-29.846s-22.029-27.714-28.425-45.48c-9.949-27.003-9.949-48.322 0.711-63.956s31.267-23.45 61.113-23.45c29.846 0 56.139 7.817 78.879 23.45 24.161 16.344 41.216 38.373 51.164 66.087v0zM3513.294 606.823c-9.949-25.582-22.74-39.084-39.795-39.084s-21.319 12.080-12.080 36.952c8.527 23.45 22.029 34.82 39.084 34.82 16.344 1.421 20.608-9.949 12.791-32.688v0zM3789.013 522.26l35.531 94.512c2.842 7.817 3.553 14.212 2.132 17.765s-4.974 5.685-11.37 5.685c-6.396 0-12.080-2.132-17.765-7.106s-9.238-11.37-12.791-19.897l-34.11-91.67h-68.219l34.82 93.091c6.396 17.055 3.553 24.872-7.817 24.872-7.106 0-12.791-2.132-18.476-7.106s-9.949-12.080-13.502-21.319l-34.11-90.248h-68.219l61.824 164.153h68.219l-9.949-26.293h0.711c4.264 4.264 9.949 9.238 17.765 14.212 7.106 4.974 14.923 8.527 23.45 11.37 7.817 2.842 16.344 4.264 24.872 4.264 11.37 0 20.608-2.132 27.003-7.106 6.396-4.264 9.949-12.080 12.080-22.029 9.238 9.238 19.897 16.344 31.267 21.319s23.45 7.106 34.82 7.106c17.055 0 28.425-5.685 33.399-17.055s3.553-27.714-4.264-48.322l-38.373-103.040h-68.93z" />
<glyph unicode="&#xe90c;" glyph-name="header-setting" d="M544 768h448c17.6 0 32 14.4 32 32s-14.4 32-32 32h-448c-17.6 0-32-14.4-32-32s14.4-32 32-32zM32 768h99.2c14.4-73.6 80-128 156.8-128 88 0 160 72 160 160s-72 160-160 160c-76.8 0-142.4-54.4-156.8-128h-99.2c-17.6 0-32-14.4-32-32s14.4-32 32-32zM288 896c52.8 0 96-43.2 96-96s-43.2-96-96-96-96 43.2-96 96 43.2 96 96 96zM992 480h-96c-17.6 0-32-14.4-32-32s14.4-32 32-32h96c17.6 0 32 14.4 32 32s-14.4 32-32 32zM32 416h451.2c14.4-73.6 80-128 156.8-128 88 0 160 72 160 160s-72 160-160 160c-76.8 0-142.4-54.4-156.8-128h-451.2c-17.6 0-32-14.4-32-32s14.4-32 32-32zM640 544c52.8 0 96-43.2 96-96s-43.2-96-96-96-96 43.2-96 96 43.2 96 96 96zM992 128h-448c-17.6 0-32-14.4-32-32s14.4-32 32-32h448c17.6 0 32 14.4 32 32s-14.4 32-32 32zM288 256c-76.8 0-142.4-54.4-156.8-128h-99.2c-17.6 0-32-14.4-32-32s14.4-32 32-32h99.2c14.4-73.6 80-128 156.8-128 88 0 160 72 160 160s-72 160-160 160zM288 0c-52.8 0-96 43.2-96 96s43.2 96 96 96 96-43.2 96-96-43.2-96-96-96z" />
<glyph unicode="&#xe90d;" glyph-name="header-message" d="M1022.4-40c0 1.6 0 1.6 0 3.2s0 1.6 0 3.2c0 0 0 1.6 0 1.6v547.2c0 0 0 0 0 1.6s0 4.8-1.6 6.4c0 0 0 1.6 0 1.6 0 1.6-1.6 4.8-3.2 6.4 0 0 0 0 0 0s0 1.6-1.6 1.6-1.6 3.2-3.2 4.8c0 0-1.6 1.6-1.6 1.6-1.6 1.6-3.2 3.2-4.8 3.2 0 0 0 0-1.6 0l-144 83.2v302.4c0 17.6-14.4 32-32 32h-636.8c-17.6 0-32-14.4-32-32v-300.8l-144-83.2c0 0 0 0-1.6-1.6s-3.2-1.6-4.8-3.2c0 0-1.6-1.6-1.6-1.6-1.6-1.6-3.2-3.2-4.8-6.4 0 0 0 0 0 0s0 0 0 0c-1.6-1.6-1.6-4.8-3.2-6.4 0 0 0-1.6 0-1.6 0-1.6 0-3.2 0-6.4 0 0 0 0 0-1.6v-547.2c0-17.6 14.4-32 32-32h960c3.2 0 4.8 0 8 1.6 0 0 1.6 0 1.6 0 1.6 0 3.2 1.6 4.8 1.6 0 0 1.6 0 1.6 1.6 1.6 1.6 3.2 3.2 4.8 4.8 0 0 0 0 0 0 1.6 1.6 3.2 3.2 4.8 6.4 0 0 0 0 0 0s0 1.6 0 1.6 1.6 1.6 1.6 3.2c3.2 1.6 3.2 1.6 3.2 3.2zM564.8 248l280 152c1.6 0 1.6 1.6 3.2 1.6l112 60.8v-438.4l-395.2 224zM926.4 516.8l-62.4-33.6v70.4l62.4-36.8zM800 896v-448l-300.8-161.6-275.2 156.8v452.8h576zM160 478.4l-64 36.8 64 36.8v-73.6zM64 460.8l808-460.8h-808v460.8zM352 704h320c17.6 0 32 14.4 32 32s-14.4 32-32 32h-320c-17.6 0-32-14.4-32-32s14.4-32 32-32zM352 544h320c17.6 0 32 14.4 32 32s-14.4 32-32 32h-320c-17.6 0-32-14.4-32-32s14.4-32 32-32z" />
<glyph unicode="&#xe90e;" glyph-name="header-exit" d="M633.6 440c-17.6 0-32-14.4-32-32v-211.2h-179.2v502.4c0 11.2-6.4 20.8-14.4 27.2l-264 168h457.6v-292.8c0-17.6 14.4-32 32-32s32 14.4 32 32v326.4c0 17.6-14.4 32-32 32h-601.6c-1.6 0-4.8 0-6.4-1.6 0 0-1.6 0-1.6 0-1.6 0-4.8-1.6-6.4-1.6 0 0 0 0-1.6 0 0 0 0 0-1.6 0 0-3.2-1.6-3.2-3.2-4.8 0 0 0 0 0 0-3.2-3.2-4.8-4.8-6.4-8 0 0 0-1.6-1.6-1.6 0-1.6-1.6-3.2-1.6-4.8 0 0 0-1.6 0-1.6-1.6-3.2-1.6-6.4-1.6-8v-763.2c0-11.2 6.4-22.4 17.6-28.8l356.8-195.2c4.8-3.2 9.6-3.2 16-3.2s11.2 1.6 16 4.8c9.6 6.4 16 16 16 27.2v161.6h211.2c17.6 0 32 14.4 32 32v244.8c1.6 17.6-14.4 32-32 32zM356.8 24l-292.8 160v684.8l292.8-185.6v-659.2zM1019.2 486.4c0 0 1.6 1.6 1.6 3.2s1.6 1.6 1.6 3.2c0 1.6 0 1.6 1.6 3.2 0 1.6 0 1.6 1.6 3.2 1.6 4.8 1.6 8 0 12.8 0 1.6 0 1.6-1.6 3.2 0 1.6 0 1.6-1.6 3.2 0 1.6-1.6 1.6-1.6 3.2s-1.6 1.6-1.6 3.2-3.2 3.2-4.8 4.8l-179.2 177.6c-12.8 12.8-33.6 12.8-46.4 0s-12.8-33.6 0-46.4l123.2-123.2h-392c-17.6 0-32-14.4-32-32s14.4-32 32-32h393.6l-123.2-123.2c-12.8-12.8-12.8-33.6 0-46.4 6.4-6.4 14.4-9.6 22.4-9.6s16 3.2 22.4 9.6l179.2 179.2c1.6 0 3.2 1.6 4.8 3.2z" />
<glyph unicode="&#xe90f;" glyph-name="dashboard-rate" d="M808.96-12.8c-10.24 0-10.24 0-20.48 0l-276.48 143.36-276.48-143.36c-10.24-10.24-30.72 0-40.96 0-10.24 10.24-10.24 30.72-10.24 40.96l51.2 286.72-225.28 204.8c-10.24 10.24-10.24 30.72-10.24 40.96s20.48 20.48 30.72 20.48l307.2 40.96 143.36 266.24c0 10.24 20.48 20.48 30.72 20.48s30.72-10.24 30.72-20.48l143.36-266.24 307.2-40.96c10.24 0 20.48-10.24 30.72-20.48 0-10.24 0-30.72-10.24-30.72l-225.28-204.8 51.2-286.72c0-10.24 0-30.72-10.24-30.72-10.24-20.48-20.48-20.48-20.48-20.48z" />
<glyph unicode="&#xe910;" glyph-name="footer-contactus" d="M995.2 446.4c-8 16-27.2 20.8-43.2 12.8s-20.8-27.2-12.8-43.2c14.4-25.6 20.8-52.8 20.8-81.6 0-57.6-30.4-112-83.2-153.6-8-6.4-12.8-16-12.8-25.6v-84.8l-81.6 49.6c-8 4.8-16 6.4-24 3.2-33.6-6.4-68.8-11.2-102.4-11.2-76.8 0-148.8 20.8-206.4 59.2-14.4 9.6-35.2 6.4-44.8-8s-6.4-35.2 8-44.8c67.2-44.8 153.6-70.4 243.2-70.4 35.2 0 70.4 4.8 104 11.2l118.4-72c4.8-3.2 11.2-4.8 16-4.8s11.2 1.6 16 4.8c9.6 6.4 16 16 16 27.2v126.4c62.4 52.8 96 121.6 96 193.6 1.6 40-8 76.8-27.2 112zM928 576c0 203.2-208 368-464 368s-464-164.8-464-368c0-81.6 33.6-160 96-224v-208c0-11.2 6.4-20.8 14.4-27.2 6.4-3.2 11.2-4.8 17.6-4.8 4.8 0 9.6 1.6 14.4 3.2l208 104c38.4-8 75.2-11.2 113.6-11.2 256 0 464 164.8 464 368zM331.2 281.6l-171.2-86.4v169.6c0 8-3.2 17.6-9.6 22.4-56 54.4-86.4 120-86.4 188.8 0 168 179.2 304 400 304s400-136 400-304-179.2-304-400-304c-36.8 0-73.6 4.8-110.4 12.8-8 1.6-16 0-22.4-3.2z" />
<glyph unicode="&#xe911;" glyph-name="menu-position" d="M512 65.6c-8 0-17.6 3.2-24 9.6-12.8 14.4-328 348.8-328 547.2 0 211.2 179.2 337.6 352 337.6s352-126.4 352-337.6c0-198.4-315.2-532.8-328-547.2-6.4-6.4-16-9.6-24-9.6zM512 896c-140.8 0-288-102.4-288-273.6 0-132.8 190.4-369.6 288-478.4 97.6 108.8 288 345.6 288 478.4 0 171.2-147.2 273.6-288 273.6zM512 480c-70.4 0-128 57.6-128 128s57.6 128 128 128 128-57.6 128-128-57.6-128-128-128zM512 672c-35.2 0-64-28.8-64-64s28.8-64 64-64c35.2 0 64 28.8 64 64s-28.8 64-64 64zM512-64c-230.4 0-480 49.6-480 160 0 88 156.8 126.4 251.2 142.4 17.6 3.2 33.6-9.6 36.8-25.6 3.2-17.6-9.6-33.6-25.6-36.8-148.8-25.6-198.4-65.6-198.4-80 0-28.8 140.8-96 416-96s416 67.2 416 96c0 14.4-49.6 54.4-196.8 80-17.6 3.2-28.8 19.2-25.6 36.8s19.2 28.8 36.8 25.6c94.4-16 251.2-54.4 251.2-142.4-1.6-110.4-251.2-160-481.6-160z" />
<glyph unicode="&#xe912;" glyph-name="menu-info" d="M896 960h-768c-17.6 0-32-14.4-32-32v-960c0-17.6 14.4-32 32-32h768c17.6 0 32 14.4 32 32v960c0 17.6-14.4 32-32 32zM864 0h-704v896h704v-896zM320 672h384c17.6 0 32 14.4 32 32s-14.4 32-32 32h-384c-17.6 0-32-14.4-32-32s14.4-32 32-32zM320 512h384c17.6 0 32 14.4 32 32s-14.4 32-32 32h-384c-17.6 0-32-14.4-32-32s14.4-32 32-32zM320 352h384c17.6 0 32 14.4 32 32s-14.4 32-32 32h-384c-17.6 0-32-14.4-32-32s14.4-32 32-32zM320 192h128c17.6 0 32 14.4 32 32s-14.4 32-32 32h-128c-17.6 0-32-14.4-32-32s14.4-32 32-32z" />
<glyph unicode="&#xe913;" glyph-name="menu-message" d="M992 704h-160v192c0 17.6-14.4 32-32 32h-768c-17.6 0-32-14.4-32-32v-544c0-17.6 14.4-32 32-32h128v-192c0-12.8 8-24 19.2-28.8 4.8-1.6 8-3.2 12.8-3.2 8 0 14.4 3.2 20.8 8l248 216h339.2c17.6 0 32 14.4 32 32v288h128v-416h-96c-17.6 0-32-14.4-32-32v-97.6l-172.8 123.2c-6.4 4.8-12.8 6.4-19.2 6.4h-192c-17.6 0-32-14.4-32-32s14.4-32 32-32h182.4l216-153.6c4.8-3.2 12.8-6.4 19.2-6.4 4.8 0 9.6 1.6 14.4 3.2 11.2 4.8 17.6 16 17.6 28.8v128h96c17.6 0 32 14.4 32 32v480c-1.6 17.6-16 32-33.6 32zM768 384h-320c-8 0-16-3.2-20.8-8l-203.2-177.6v153.6c0 17.6-14.4 32-32 32h-128v480h704v-480z" />
<glyph unicode="&#xe914;" glyph-name="menu-menu" d="M848-48c-1.6 0-1.6 0-3.2 0l-704 64c-16 1.6-28.8 16-28.8 32v800c0 16 12.8 30.4 28.8 32l704 64c9.6 0 17.6-1.6 24-8 8-6.4 11.2-14.4 11.2-24v-928c0-9.6-3.2-17.6-11.2-24-4.8-4.8-12.8-8-20.8-8zM176 76.8l640-57.6v857.6l-640-57.6v-742.4zM640 304h-320c-17.6 0-32 14.4-32 32s14.4 32 32 32h320c17.6 0 32-14.4 32-32s-14.4-32-32-32zM640 160c0 0-1.6 0-1.6 0l-320 16c-17.6 1.6-32 16-30.4 33.6s16 32 33.6 30.4l320-16c17.6-1.6 32-16 30.4-33.6s-14.4-30.4-32-30.4zM480 448c-88 0-160 72-160 160s72 160 160 160c88 0 160-72 160-160s-72-160-160-160zM480 704c-52.8 0-96-43.2-96-96s43.2-96 96-96 96 43.2 96 96-43.2 96-96 96zM944 32c-17.6 0-32 14.4-32 32v768c0 17.6 14.4 32 32 32s32-14.4 32-32v-768c0-17.6-14.4-32-32-32z" />
<glyph unicode="&#xe915;" glyph-name="menu-report" d="M944 160h-640c-17.6 0-32-14.4-32-32v-64c0-35.2-28.8-64-64-64s-64 28.8-64 64v832h640v-672c0-17.6 14.4-32 32-32s32 14.4 32 32v704c0 17.6-14.4 32-32 32h-704c-17.6 0-32-14.4-32-32v-864c0-70.4 57.6-128 128-128h640c70.4 0 128 57.6 128 128v64c0 17.6-14.4 32-32 32zM912 64c0-35.2-28.8-64-64-64h-529.6c11.2 19.2 17.6 40 17.6 64v32h576v-32zM656 736h-384c-17.6 0-32-14.4-32-32s14.4-32 32-32h384c17.6 0 32 14.4 32 32s-14.4 32-32 32zM656 560h-384c-17.6 0-32-14.4-32-32s14.4-32 32-32h384c17.6 0 32 14.4 32 32s-14.4 32-32 32zM656 384h-384c-17.6 0-32-14.4-32-32s14.4-32 32-32h384c17.6 0 32 14.4 32 32s-14.4 32-32 32z" />
<glyph unicode="&#xe916;" glyph-name="menu-orders" d="M976 475.2l-84.8 48c-16 8-35.2 3.2-43.2-11.2-8-16-3.2-35.2 11.2-43.2l36.8-20.8-384-219.2-384 219.2 35.2 20.8c16 8 20.8 28.8 11.2 43.2-8 16-28.8 20.8-43.2 11.2l-84.8-48c-9.6-6.4-16-16-16-27.2s6.4-22.4 16-27.2l448-256c4.8-3.2 9.6-4.8 16-4.8s11.2 1.6 16 4.8l448 256c9.6 6.4 16 16 16 27.2s-4.8 22.4-14.4 27.2zM976 267.2l-84.8 48c-16 8-35.2 3.2-43.2-11.2s-3.2-35.2 11.2-43.2l36.8-20.8-384-219.2-384 219.2 35.2 20.8c16 8 20.8 28.8 11.2 43.2-8 16-28.8 20.8-43.2 11.2l-84.8-48c-9.6-6.4-16-16-16-27.2s6.4-22.4 16-27.2l448-256c4.8-3.2 9.6-4.8 16-4.8s11.2 1.6 16 4.8l448 256c9.6 6.4 16 16 16 27.2s-4.8 22.4-14.4 27.2zM48 628.8l448-256c4.8-3.2 9.6-4.8 16-4.8s11.2 1.6 16 4.8l448 256c9.6 6.4 16 16 16 27.2s-6.4 22.4-16 27.2l-448 256c-9.6 6.4-22.4 6.4-32 0l-448-256c-9.6-6.4-16-16-16-27.2s6.4-22.4 16-27.2zM512 875.2l384-219.2-384-219.2-384 219.2 384 219.2z" />
<glyph unicode="&#xe917;" glyph-name="menu-dashboard" d="M864 416h-384v384c0 17.6-14.4 32-32 32-246.4 0-448-201.6-448-448s201.6-448 448-448 448 201.6 448 448c0 17.6-14.4 32-32 32zM448 0c-211.2 0-384 172.8-384 384 0 201.6 155.2 366.4 352 382.4v-382.4c0-17.6 14.4-32 32-32h382.4c-16-196.8-180.8-352-382.4-352zM576 960c-17.6 0-32-14.4-32-32v-416c0-17.6 14.4-32 32-32h416c17.6 0 32 14.4 32 32 0 246.4-201.6 448-448 448zM608 544v350.4c185.6-14.4 336-164.8 350.4-350.4h-350.4z" />
<glyph unicode="&#xe918;" glyph-name="login-arrow" horiz-adv-x="584" d="M0 448c0 18.359 7.026 36.717 21.078 50.769l440.152 440.152c28.104 28.104 73.434 28.104 101.539 0s28.104-73.434 0-101.312l-389.61-389.61 389.61-389.61c28.104-28.104 28.104-73.434 0-101.312-28.104-28.104-73.434-28.104-101.539 0l-440.152 440.152c-14.052 14.052-21.078 32.411-21.078 50.769z" />
<glyph unicode="&#xe919;" glyph-name="login-contactus" d="M608 960c-17.6 0-32-14.4-32-32s14.4-32 32-32c193.6 0 352-158.4 352-352 0-17.6 14.4-32 32-32s32 14.4 32 32c0 228.8-187.2 416-416 416zM758.4 374.4c-12.8 12.8-32 12.8-44.8 0l-137.6-137.6-275.2 275.2 137.6 137.6c12.8 12.8 12.8 32 0 44.8l-224 224c-12.8 12.8-32 12.8-44.8 0l-160-160c-6.4-6.4-9.6-14.4-9.6-22.4 0-441.6 358.4-800 800-800 8 0 16 3.2 22.4 9.6l160 160c12.8 12.8 12.8 32 0 44.8l-224 224zM787.2 0c-395.2 6.4-716.8 328-723.2 723.2l128 128 179.2-179.2-137.6-137.6c-12.8-12.8-12.8-32 0-44.8l320-320c12.8-12.8 32-12.8 44.8 0l137.6 137.6 179.2-179.2-128-128zM768 544c0-17.6 14.4-32 32-32s32 14.4 32 32c0 123.2-100.8 224-224 224-17.6 0-32-14.4-32-32s14.4-32 32-32c88 0 160-72 160-160z" />
<glyph unicode="&#xe91a;" glyph-name="login-password" d="M341.333 576h-85.333v132.267c0 140.8 115.2 251.733 251.733 251.733 0 0 0 0 4.267 0 102.4 0 192-59.733 234.667-153.6l-76.8-34.133c-29.867 59.733-89.6 102.4-157.867 102.4 0 0 0 0 0 0-93.867 0-170.667-72.533-170.667-166.4v-132.267zM512 192c-72.533 0-128 55.467-128 128s55.467 128 128 128 128-55.467 128-128-55.467-128-128-128zM512 362.667c-25.6 0-42.667-17.067-42.667-42.667s17.067-42.667 42.667-42.667c25.6 0 42.667 17.067 42.667 42.667s-17.067 42.667-42.667 42.667zM469.333 277.333h85.333v-170.667h-85.333v170.667zM810.667-64h-597.333c-72.533 0-128 55.467-128 128v426.667c0 72.533 55.467 128 128 128h597.333c72.533 0 128-55.467 128-128v-426.667c0-72.533-55.467-128-128-128zM213.333 533.333c-25.6 0-42.667-17.067-42.667-42.667v-426.667c0-25.6 17.067-42.667 42.667-42.667h597.333c25.6 0 42.667 17.067 42.667 42.667v426.667c0 25.6-17.067 42.667-42.667 42.667h-597.333z" />
<glyph unicode="&#xe91b;" glyph-name="login-username" d="M768 960h-512c-72.533 0-128-55.467-128-128v-768c0-72.533 55.467-128 128-128h512c72.533 0 128 55.467 128 128v768c0 72.533-55.467 128-128 128zM810.667 64c0-25.6-17.067-42.667-42.667-42.667h-512c-25.6 0-42.667 17.067-42.667 42.667v768c0 25.6 17.067 42.667 42.667 42.667h512c25.6 0 42.667-17.067 42.667-42.667v-768zM554.667 149.333c0-23.564-19.103-42.667-42.667-42.667s-42.667 19.103-42.667 42.667c0 23.564 19.103 42.667 42.667 42.667s42.667-19.103 42.667-42.667z" />
</font>
</defs>
</svg>
